<mxfile host="app.diagrams.net" agent="Mozilla/5.0 (Windows NT 10.0; Win64; x64) AppleWebKit/537.36 (KHTML, like Gecko) Chrome/131.0.0.0 Safari/537.36" version="26.0.5">
  <diagram name="Page-1" id="bd83a815-5ea8-2e97-e5ec-87c9f400f2fa">
    <mxGraphModel dx="2489" dy="1040" grid="1" gridSize="10" guides="1" tooltips="1" connect="1" arrows="1" fold="1" page="1" pageScale="1.5" pageWidth="3300" pageHeight="2339" background="#D4D4D4" math="0" shadow="1">
      <root>
        <mxCell id="0" style=";html=1;" />
        <mxCell id="1" style=";html=1;" parent="0" />
        <mxCell id="1516e18e63f93b96-3" value="&lt;font style=&quot;vertical-align: inherit;&quot;&gt;&lt;font style=&quot;vertical-align: inherit;&quot;&gt;&lt;font style=&quot;vertical-align: inherit;&quot;&gt;&lt;font style=&quot;vertical-align: inherit;&quot;&gt;Table non modelisÃ©e&lt;/font&gt;&lt;/font&gt;&lt;/font&gt;&lt;/font&gt;" style="text;strokeColor=none;fillColor=none;html=1;fontSize=24;fontStyle=1;verticalAlign=middle;align=center;rounded=1;shadow=1;" parent="1" vertex="1">
          <mxGeometry x="320" y="40" width="780" height="40" as="geometry" />
        </mxCell>
        <mxCell id="_xAk3Wb8vuUeQdh9CbYk-14" value="" style="shape=table;startSize=0;container=1;collapsible=0;childLayout=tableLayout;rounded=1;" vertex="1" parent="1">
          <mxGeometry x="210" y="90" width="1440" height="160" as="geometry" />
        </mxCell>
        <mxCell id="_xAk3Wb8vuUeQdh9CbYk-15" value="" style="shape=tableRow;horizontal=0;startSize=0;swimlaneHead=0;swimlaneBody=0;strokeColor=inherit;top=0;left=0;bottom=0;right=0;collapsible=0;dropTarget=0;fillColor=none;points=[[0,0.5],[1,0.5]];portConstraint=eastwest;rounded=1;" vertex="1" parent="_xAk3Wb8vuUeQdh9CbYk-14">
          <mxGeometry width="1440" height="40" as="geometry" />
        </mxCell>
        <mxCell id="_xAk3Wb8vuUeQdh9CbYk-16" value="" style="shape=partialRectangle;html=1;whiteSpace=wrap;connectable=0;strokeColor=inherit;overflow=hidden;fillColor=none;top=0;left=0;bottom=0;right=0;pointerEvents=1;rounded=1;" vertex="1" parent="_xAk3Wb8vuUeQdh9CbYk-15">
          <mxGeometry width="163" height="40" as="geometry">
            <mxRectangle width="163" height="40" as="alternateBounds" />
          </mxGeometry>
        </mxCell>
        <mxCell id="_xAk3Wb8vuUeQdh9CbYk-17" value="" style="shape=partialRectangle;html=1;whiteSpace=wrap;connectable=0;strokeColor=inherit;overflow=hidden;fillColor=none;top=0;left=0;bottom=0;right=0;pointerEvents=1;rounded=1;" vertex="1" parent="_xAk3Wb8vuUeQdh9CbYk-15">
          <mxGeometry x="163" width="167" height="40" as="geometry">
            <mxRectangle width="167" height="40" as="alternateBounds" />
          </mxGeometry>
        </mxCell>
        <mxCell id="_xAk3Wb8vuUeQdh9CbYk-18" value="" style="shape=partialRectangle;html=1;whiteSpace=wrap;connectable=0;strokeColor=inherit;overflow=hidden;fillColor=none;top=0;left=0;bottom=0;right=0;pointerEvents=1;rounded=1;" vertex="1" parent="_xAk3Wb8vuUeQdh9CbYk-15">
          <mxGeometry x="330" width="220" height="40" as="geometry">
            <mxRectangle width="220" height="40" as="alternateBounds" />
          </mxGeometry>
        </mxCell>
        <mxCell id="_xAk3Wb8vuUeQdh9CbYk-19" value="" style="shape=partialRectangle;html=1;whiteSpace=wrap;connectable=0;strokeColor=inherit;overflow=hidden;fillColor=none;top=0;left=0;bottom=0;right=0;pointerEvents=1;rounded=1;" vertex="1" parent="_xAk3Wb8vuUeQdh9CbYk-15">
          <mxGeometry x="550" width="180" height="40" as="geometry">
            <mxRectangle width="180" height="40" as="alternateBounds" />
          </mxGeometry>
        </mxCell>
        <mxCell id="_xAk3Wb8vuUeQdh9CbYk-20" value="" style="shape=partialRectangle;html=1;whiteSpace=wrap;connectable=0;strokeColor=inherit;overflow=hidden;fillColor=none;top=0;left=0;bottom=0;right=0;pointerEvents=1;rounded=1;" vertex="1" parent="_xAk3Wb8vuUeQdh9CbYk-15">
          <mxGeometry x="730" width="220" height="40" as="geometry">
            <mxRectangle width="220" height="40" as="alternateBounds" />
          </mxGeometry>
        </mxCell>
        <mxCell id="_xAk3Wb8vuUeQdh9CbYk-21" value="" style="shape=partialRectangle;html=1;whiteSpace=wrap;connectable=0;strokeColor=inherit;overflow=hidden;fillColor=none;top=0;left=0;bottom=0;right=0;pointerEvents=1;rounded=1;" vertex="1" parent="_xAk3Wb8vuUeQdh9CbYk-15">
          <mxGeometry x="950" width="260" height="40" as="geometry">
            <mxRectangle width="260" height="40" as="alternateBounds" />
          </mxGeometry>
        </mxCell>
        <mxCell id="_xAk3Wb8vuUeQdh9CbYk-22" value="" style="shape=partialRectangle;html=1;whiteSpace=wrap;connectable=0;strokeColor=inherit;overflow=hidden;fillColor=none;top=0;left=0;bottom=0;right=0;pointerEvents=1;rounded=1;" vertex="1" parent="_xAk3Wb8vuUeQdh9CbYk-15">
          <mxGeometry x="1210" width="230" height="40" as="geometry">
            <mxRectangle width="230" height="40" as="alternateBounds" />
          </mxGeometry>
        </mxCell>
        <mxCell id="_xAk3Wb8vuUeQdh9CbYk-23" value="" style="shape=tableRow;horizontal=0;startSize=0;swimlaneHead=0;swimlaneBody=0;strokeColor=inherit;top=0;left=0;bottom=0;right=0;collapsible=0;dropTarget=0;fillColor=none;points=[[0,0.5],[1,0.5]];portConstraint=eastwest;rounded=1;" vertex="1" parent="_xAk3Wb8vuUeQdh9CbYk-14">
          <mxGeometry y="40" width="1440" height="40" as="geometry" />
        </mxCell>
        <mxCell id="_xAk3Wb8vuUeQdh9CbYk-24" value="" style="shape=partialRectangle;html=1;whiteSpace=wrap;connectable=0;strokeColor=inherit;overflow=hidden;fillColor=none;top=0;left=0;bottom=0;right=0;pointerEvents=1;rounded=1;" vertex="1" parent="_xAk3Wb8vuUeQdh9CbYk-23">
          <mxGeometry width="163" height="40" as="geometry">
            <mxRectangle width="163" height="40" as="alternateBounds" />
          </mxGeometry>
        </mxCell>
        <mxCell id="_xAk3Wb8vuUeQdh9CbYk-25" value="" style="shape=partialRectangle;html=1;whiteSpace=wrap;connectable=0;strokeColor=inherit;overflow=hidden;fillColor=none;top=0;left=0;bottom=0;right=0;pointerEvents=1;rounded=1;" vertex="1" parent="_xAk3Wb8vuUeQdh9CbYk-23">
          <mxGeometry x="163" width="167" height="40" as="geometry">
            <mxRectangle width="167" height="40" as="alternateBounds" />
          </mxGeometry>
        </mxCell>
        <mxCell id="_xAk3Wb8vuUeQdh9CbYk-26" value="" style="shape=partialRectangle;html=1;whiteSpace=wrap;connectable=0;strokeColor=inherit;overflow=hidden;fillColor=none;top=0;left=0;bottom=0;right=0;pointerEvents=1;rounded=1;" vertex="1" parent="_xAk3Wb8vuUeQdh9CbYk-23">
          <mxGeometry x="330" width="220" height="40" as="geometry">
            <mxRectangle width="220" height="40" as="alternateBounds" />
          </mxGeometry>
        </mxCell>
        <mxCell id="_xAk3Wb8vuUeQdh9CbYk-27" value="" style="shape=partialRectangle;html=1;whiteSpace=wrap;connectable=0;strokeColor=inherit;overflow=hidden;fillColor=none;top=0;left=0;bottom=0;right=0;pointerEvents=1;rounded=1;" vertex="1" parent="_xAk3Wb8vuUeQdh9CbYk-23">
          <mxGeometry x="550" width="180" height="40" as="geometry">
            <mxRectangle width="180" height="40" as="alternateBounds" />
          </mxGeometry>
        </mxCell>
        <mxCell id="_xAk3Wb8vuUeQdh9CbYk-28" value="" style="shape=partialRectangle;html=1;whiteSpace=wrap;connectable=0;strokeColor=inherit;overflow=hidden;fillColor=none;top=0;left=0;bottom=0;right=0;pointerEvents=1;rounded=1;" vertex="1" parent="_xAk3Wb8vuUeQdh9CbYk-23">
          <mxGeometry x="730" width="220" height="40" as="geometry">
            <mxRectangle width="220" height="40" as="alternateBounds" />
          </mxGeometry>
        </mxCell>
        <mxCell id="_xAk3Wb8vuUeQdh9CbYk-29" value="" style="shape=partialRectangle;html=1;whiteSpace=wrap;connectable=0;strokeColor=inherit;overflow=hidden;fillColor=none;top=0;left=0;bottom=0;right=0;pointerEvents=1;rounded=1;" vertex="1" parent="_xAk3Wb8vuUeQdh9CbYk-23">
          <mxGeometry x="950" width="260" height="40" as="geometry">
            <mxRectangle width="260" height="40" as="alternateBounds" />
          </mxGeometry>
        </mxCell>
        <mxCell id="_xAk3Wb8vuUeQdh9CbYk-30" value="" style="shape=partialRectangle;html=1;whiteSpace=wrap;connectable=0;strokeColor=inherit;overflow=hidden;fillColor=none;top=0;left=0;bottom=0;right=0;pointerEvents=1;rounded=1;" vertex="1" parent="_xAk3Wb8vuUeQdh9CbYk-23">
          <mxGeometry x="1210" width="230" height="40" as="geometry">
            <mxRectangle width="230" height="40" as="alternateBounds" />
          </mxGeometry>
        </mxCell>
        <mxCell id="_xAk3Wb8vuUeQdh9CbYk-31" value="" style="shape=tableRow;horizontal=0;startSize=0;swimlaneHead=0;swimlaneBody=0;strokeColor=inherit;top=0;left=0;bottom=0;right=0;collapsible=0;dropTarget=0;fillColor=none;points=[[0,0.5],[1,0.5]];portConstraint=eastwest;rounded=1;" vertex="1" parent="_xAk3Wb8vuUeQdh9CbYk-14">
          <mxGeometry y="80" width="1440" height="40" as="geometry" />
        </mxCell>
        <mxCell id="_xAk3Wb8vuUeQdh9CbYk-32" value="" style="shape=partialRectangle;html=1;whiteSpace=wrap;connectable=0;strokeColor=inherit;overflow=hidden;fillColor=none;top=0;left=0;bottom=0;right=0;pointerEvents=1;rounded=1;" vertex="1" parent="_xAk3Wb8vuUeQdh9CbYk-31">
          <mxGeometry width="163" height="40" as="geometry">
            <mxRectangle width="163" height="40" as="alternateBounds" />
          </mxGeometry>
        </mxCell>
        <mxCell id="_xAk3Wb8vuUeQdh9CbYk-33" value="" style="shape=partialRectangle;html=1;whiteSpace=wrap;connectable=0;strokeColor=inherit;overflow=hidden;fillColor=none;top=0;left=0;bottom=0;right=0;pointerEvents=1;rounded=1;" vertex="1" parent="_xAk3Wb8vuUeQdh9CbYk-31">
          <mxGeometry x="163" width="167" height="40" as="geometry">
            <mxRectangle width="167" height="40" as="alternateBounds" />
          </mxGeometry>
        </mxCell>
        <mxCell id="_xAk3Wb8vuUeQdh9CbYk-34" value="" style="shape=partialRectangle;html=1;whiteSpace=wrap;connectable=0;strokeColor=inherit;overflow=hidden;fillColor=none;top=0;left=0;bottom=0;right=0;pointerEvents=1;rounded=1;" vertex="1" parent="_xAk3Wb8vuUeQdh9CbYk-31">
          <mxGeometry x="330" width="220" height="40" as="geometry">
            <mxRectangle width="220" height="40" as="alternateBounds" />
          </mxGeometry>
        </mxCell>
        <mxCell id="_xAk3Wb8vuUeQdh9CbYk-35" value="" style="shape=partialRectangle;html=1;whiteSpace=wrap;connectable=0;strokeColor=inherit;overflow=hidden;fillColor=none;top=0;left=0;bottom=0;right=0;pointerEvents=1;rounded=1;" vertex="1" parent="_xAk3Wb8vuUeQdh9CbYk-31">
          <mxGeometry x="550" width="180" height="40" as="geometry">
            <mxRectangle width="180" height="40" as="alternateBounds" />
          </mxGeometry>
        </mxCell>
        <mxCell id="_xAk3Wb8vuUeQdh9CbYk-36" value="" style="shape=partialRectangle;html=1;whiteSpace=wrap;connectable=0;strokeColor=inherit;overflow=hidden;fillColor=none;top=0;left=0;bottom=0;right=0;pointerEvents=1;rounded=1;" vertex="1" parent="_xAk3Wb8vuUeQdh9CbYk-31">
          <mxGeometry x="730" width="220" height="40" as="geometry">
            <mxRectangle width="220" height="40" as="alternateBounds" />
          </mxGeometry>
        </mxCell>
        <mxCell id="_xAk3Wb8vuUeQdh9CbYk-37" value="" style="shape=partialRectangle;html=1;whiteSpace=wrap;connectable=0;strokeColor=inherit;overflow=hidden;fillColor=none;top=0;left=0;bottom=0;right=0;pointerEvents=1;rounded=1;" vertex="1" parent="_xAk3Wb8vuUeQdh9CbYk-31">
          <mxGeometry x="950" width="260" height="40" as="geometry">
            <mxRectangle width="260" height="40" as="alternateBounds" />
          </mxGeometry>
        </mxCell>
        <mxCell id="_xAk3Wb8vuUeQdh9CbYk-38" value="" style="shape=partialRectangle;html=1;whiteSpace=wrap;connectable=0;strokeColor=inherit;overflow=hidden;fillColor=none;top=0;left=0;bottom=0;right=0;pointerEvents=1;rounded=1;" vertex="1" parent="_xAk3Wb8vuUeQdh9CbYk-31">
          <mxGeometry x="1210" width="230" height="40" as="geometry">
            <mxRectangle width="230" height="40" as="alternateBounds" />
          </mxGeometry>
        </mxCell>
        <mxCell id="_xAk3Wb8vuUeQdh9CbYk-39" value="" style="shape=tableRow;horizontal=0;startSize=0;swimlaneHead=0;swimlaneBody=0;strokeColor=inherit;top=0;left=0;bottom=0;right=0;collapsible=0;dropTarget=0;fillColor=none;points=[[0,0.5],[1,0.5]];portConstraint=eastwest;rounded=1;" vertex="1" parent="_xAk3Wb8vuUeQdh9CbYk-14">
          <mxGeometry y="120" width="1440" height="40" as="geometry" />
        </mxCell>
        <mxCell id="_xAk3Wb8vuUeQdh9CbYk-40" value="" style="shape=partialRectangle;html=1;whiteSpace=wrap;connectable=0;strokeColor=inherit;overflow=hidden;fillColor=none;top=0;left=0;bottom=0;right=0;pointerEvents=1;rounded=1;" vertex="1" parent="_xAk3Wb8vuUeQdh9CbYk-39">
          <mxGeometry width="163" height="40" as="geometry">
            <mxRectangle width="163" height="40" as="alternateBounds" />
          </mxGeometry>
        </mxCell>
        <mxCell id="_xAk3Wb8vuUeQdh9CbYk-41" value="" style="shape=partialRectangle;html=1;whiteSpace=wrap;connectable=0;strokeColor=inherit;overflow=hidden;fillColor=none;top=0;left=0;bottom=0;right=0;pointerEvents=1;rounded=1;" vertex="1" parent="_xAk3Wb8vuUeQdh9CbYk-39">
          <mxGeometry x="163" width="167" height="40" as="geometry">
            <mxRectangle width="167" height="40" as="alternateBounds" />
          </mxGeometry>
        </mxCell>
        <mxCell id="_xAk3Wb8vuUeQdh9CbYk-42" value="" style="shape=partialRectangle;html=1;whiteSpace=wrap;connectable=0;strokeColor=inherit;overflow=hidden;fillColor=none;top=0;left=0;bottom=0;right=0;pointerEvents=1;rounded=1;" vertex="1" parent="_xAk3Wb8vuUeQdh9CbYk-39">
          <mxGeometry x="330" width="220" height="40" as="geometry">
            <mxRectangle width="220" height="40" as="alternateBounds" />
          </mxGeometry>
        </mxCell>
        <mxCell id="_xAk3Wb8vuUeQdh9CbYk-43" value="" style="shape=partialRectangle;html=1;whiteSpace=wrap;connectable=0;strokeColor=inherit;overflow=hidden;fillColor=none;top=0;left=0;bottom=0;right=0;pointerEvents=1;rounded=1;" vertex="1" parent="_xAk3Wb8vuUeQdh9CbYk-39">
          <mxGeometry x="550" width="180" height="40" as="geometry">
            <mxRectangle width="180" height="40" as="alternateBounds" />
          </mxGeometry>
        </mxCell>
        <mxCell id="_xAk3Wb8vuUeQdh9CbYk-44" value="" style="shape=partialRectangle;html=1;whiteSpace=wrap;connectable=0;strokeColor=inherit;overflow=hidden;fillColor=none;top=0;left=0;bottom=0;right=0;pointerEvents=1;rounded=1;" vertex="1" parent="_xAk3Wb8vuUeQdh9CbYk-39">
          <mxGeometry x="730" width="220" height="40" as="geometry">
            <mxRectangle width="220" height="40" as="alternateBounds" />
          </mxGeometry>
        </mxCell>
        <mxCell id="_xAk3Wb8vuUeQdh9CbYk-45" value="" style="shape=partialRectangle;html=1;whiteSpace=wrap;connectable=0;strokeColor=inherit;overflow=hidden;fillColor=none;top=0;left=0;bottom=0;right=0;pointerEvents=1;rounded=1;" vertex="1" parent="_xAk3Wb8vuUeQdh9CbYk-39">
          <mxGeometry x="950" width="260" height="40" as="geometry">
            <mxRectangle width="260" height="40" as="alternateBounds" />
          </mxGeometry>
        </mxCell>
        <mxCell id="_xAk3Wb8vuUeQdh9CbYk-46" value="" style="shape=partialRectangle;html=1;whiteSpace=wrap;connectable=0;strokeColor=inherit;overflow=hidden;fillColor=none;top=0;left=0;bottom=0;right=0;pointerEvents=1;rounded=1;" vertex="1" parent="_xAk3Wb8vuUeQdh9CbYk-39">
          <mxGeometry x="1210" width="230" height="40" as="geometry">
            <mxRectangle width="230" height="40" as="alternateBounds" />
          </mxGeometry>
        </mxCell>
        <mxCell id="_xAk3Wb8vuUeQdh9CbYk-47" value="&lt;font style=&quot;vertical-align: inherit;&quot;&gt;&lt;font style=&quot;vertical-align: inherit;&quot;&gt;&lt;font style=&quot;vertical-align: inherit;&quot;&gt;&lt;font style=&quot;vertical-align: inherit; font-size: 24px;&quot;&gt;&lt;b style=&quot;&quot;&gt;&lt;font style=&quot;vertical-align: inherit;&quot;&gt;&lt;font style=&quot;vertical-align: inherit;&quot;&gt;Code client&lt;/font&gt;&lt;/font&gt;&lt;/b&gt;&lt;/font&gt;&lt;/font&gt;&lt;/font&gt;&lt;/font&gt;" style="text;strokeColor=none;align=center;fillColor=none;html=1;verticalAlign=middle;whiteSpace=wrap;rounded=1;" vertex="1" parent="1">
          <mxGeometry x="220" y="100" width="140" height="30" as="geometry" />
        </mxCell>
        <mxCell id="_xAk3Wb8vuUeQdh9CbYk-48" value="&lt;span style=&quot;font-size: 24px;&quot;&gt;&lt;b&gt;&lt;font style=&quot;vertical-align: inherit;&quot;&gt;&lt;font style=&quot;vertical-align: inherit;&quot;&gt;Nom client&lt;/font&gt;&lt;/font&gt;&lt;/b&gt;&lt;/span&gt;" style="text;strokeColor=none;align=center;fillColor=none;html=1;verticalAlign=middle;whiteSpace=wrap;rounded=1;" vertex="1" parent="1">
          <mxGeometry x="380" y="100" width="140" height="30" as="geometry" />
        </mxCell>
        <mxCell id="_xAk3Wb8vuUeQdh9CbYk-49" value="&lt;font style=&quot;vertical-align: inherit;&quot;&gt;&lt;font style=&quot;vertical-align: inherit;&quot;&gt;&lt;font style=&quot;vertical-align: inherit;&quot;&gt;&lt;font style=&quot;vertical-align: inherit; font-size: 24px;&quot;&gt;&lt;b style=&quot;&quot;&gt;&lt;font style=&quot;vertical-align: inherit;&quot;&gt;&lt;font style=&quot;vertical-align: inherit;&quot;&gt;Adresse client&lt;/font&gt;&lt;/font&gt;&lt;/b&gt;&lt;/font&gt;&lt;/font&gt;&lt;/font&gt;&lt;/font&gt;" style="text;strokeColor=none;align=center;fillColor=none;html=1;verticalAlign=middle;whiteSpace=wrap;rounded=1;" vertex="1" parent="1">
          <mxGeometry x="560" y="100" width="180" height="30" as="geometry" />
        </mxCell>
        <mxCell id="_xAk3Wb8vuUeQdh9CbYk-50" value="&lt;font style=&quot;vertical-align: inherit;&quot;&gt;&lt;font style=&quot;vertical-align: inherit;&quot;&gt;&lt;font style=&quot;vertical-align: inherit;&quot;&gt;&lt;font style=&quot;vertical-align: inherit; font-size: 24px;&quot;&gt;&lt;b style=&quot;&quot;&gt;&lt;font style=&quot;vertical-align: inherit;&quot;&gt;&lt;font style=&quot;vertical-align: inherit;&quot;&gt;Ville client&lt;/font&gt;&lt;/font&gt;&lt;/b&gt;&lt;/font&gt;&lt;/font&gt;&lt;/font&gt;&lt;/font&gt;" style="text;strokeColor=none;align=center;fillColor=none;html=1;verticalAlign=middle;whiteSpace=wrap;rounded=1;" vertex="1" parent="1">
          <mxGeometry x="780" y="100" width="140" height="30" as="geometry" />
        </mxCell>
        <mxCell id="_xAk3Wb8vuUeQdh9CbYk-52" value="&lt;font style=&quot;vertical-align: inherit;&quot;&gt;&lt;font style=&quot;vertical-align: inherit;&quot;&gt;&lt;font style=&quot;vertical-align: inherit;&quot;&gt;&lt;font style=&quot;vertical-align: inherit; font-size: 24px;&quot;&gt;&lt;b style=&quot;&quot;&gt;&lt;font style=&quot;vertical-align: inherit;&quot;&gt;&lt;font style=&quot;vertical-align: inherit;&quot;&gt;N commande&lt;/font&gt;&lt;/font&gt;&lt;/b&gt;&lt;/font&gt;&lt;/font&gt;&lt;/font&gt;&lt;/font&gt;" style="text;strokeColor=none;align=center;fillColor=none;html=1;verticalAlign=middle;whiteSpace=wrap;rounded=1;" vertex="1" parent="1">
          <mxGeometry x="950" y="100" width="190" height="30" as="geometry" />
        </mxCell>
        <mxCell id="_xAk3Wb8vuUeQdh9CbYk-53" value="&lt;font style=&quot;vertical-align: inherit;&quot;&gt;&lt;font style=&quot;vertical-align: inherit;&quot;&gt;&lt;font style=&quot;vertical-align: inherit;&quot;&gt;&lt;font style=&quot;vertical-align: inherit; font-size: 24px;&quot;&gt;&lt;b style=&quot;&quot;&gt;&lt;font style=&quot;vertical-align: inherit;&quot;&gt;&lt;font style=&quot;vertical-align: inherit;&quot;&gt;Date de commande&lt;/font&gt;&lt;/font&gt;&lt;/b&gt;&lt;/font&gt;&lt;/font&gt;&lt;/font&gt;&lt;/font&gt;" style="text;strokeColor=none;align=center;fillColor=none;html=1;verticalAlign=middle;whiteSpace=wrap;rounded=1;" vertex="1" parent="1">
          <mxGeometry x="1170" y="100" width="240" height="30" as="geometry" />
        </mxCell>
        <mxCell id="_xAk3Wb8vuUeQdh9CbYk-54" value="&lt;font style=&quot;vertical-align: inherit;&quot;&gt;&lt;font style=&quot;vertical-align: inherit;&quot;&gt;&lt;font style=&quot;vertical-align: inherit;&quot;&gt;&lt;font style=&quot;vertical-align: inherit; font-size: 24px;&quot;&gt;&lt;b style=&quot;&quot;&gt;&lt;font style=&quot;vertical-align: inherit;&quot;&gt;&lt;font style=&quot;vertical-align: inherit;&quot;&gt;&lt;font style=&quot;vertical-align: inherit;&quot;&gt;&lt;font style=&quot;vertical-align: inherit;&quot;&gt;Date de livraison&lt;/font&gt;&lt;/font&gt;&lt;/font&gt;&lt;/font&gt;&lt;/b&gt;&lt;/font&gt;&lt;/font&gt;&lt;/font&gt;&lt;/font&gt;" style="text;strokeColor=none;align=center;fillColor=none;html=1;verticalAlign=middle;whiteSpace=wrap;rounded=1;" vertex="1" parent="1">
          <mxGeometry x="1445" y="100" width="195" height="30" as="geometry" />
        </mxCell>
        <mxCell id="_xAk3Wb8vuUeQdh9CbYk-55" value="&lt;font style=&quot;vertical-align: inherit;&quot;&gt;&lt;font style=&quot;vertical-align: inherit;&quot;&gt;&lt;font style=&quot;vertical-align: inherit;&quot;&gt;&lt;font style=&quot;vertical-align: inherit;&quot;&gt;Table modelisÃ©e(base de donnÃ©e relationnel, modÃ¨le conceptuel de donnÃ©e ou EntitÃ© association)&lt;/font&gt;&lt;/font&gt;&lt;/font&gt;&lt;/font&gt;" style="text;strokeColor=none;fillColor=none;html=1;fontSize=24;fontStyle=1;verticalAlign=middle;align=center;rounded=1;shadow=1;" vertex="1" parent="1">
          <mxGeometry x="600" y="430" width="780" height="40" as="geometry" />
        </mxCell>
        <mxCell id="_xAk3Wb8vuUeQdh9CbYk-96" value="" style="edgeStyle=none;rounded=1;orthogonalLoop=1;jettySize=auto;html=1;" edge="1" parent="1" source="_xAk3Wb8vuUeQdh9CbYk-56" target="_xAk3Wb8vuUeQdh9CbYk-95">
          <mxGeometry relative="1" as="geometry" />
        </mxCell>
        <mxCell id="_xAk3Wb8vuUeQdh9CbYk-56" value="&lt;font style=&quot;font-size: 24px;&quot;&gt;Client&lt;/font&gt;" style="shape=table;startSize=70;container=1;collapsible=1;childLayout=tableLayout;fixedRows=1;rowLines=0;fontStyle=1;align=center;resizeLast=1;html=1;rounded=1;" vertex="1" parent="1">
          <mxGeometry x="40" y="490" width="590" height="390" as="geometry" />
        </mxCell>
        <mxCell id="_xAk3Wb8vuUeQdh9CbYk-57" value="" style="shape=tableRow;horizontal=0;startSize=0;swimlaneHead=0;swimlaneBody=0;fillColor=none;collapsible=0;dropTarget=0;points=[[0,0.5],[1,0.5]];portConstraint=eastwest;top=0;left=0;right=0;bottom=1;rounded=1;" vertex="1" parent="_xAk3Wb8vuUeQdh9CbYk-56">
          <mxGeometry y="70" width="590" height="80" as="geometry" />
        </mxCell>
        <mxCell id="_xAk3Wb8vuUeQdh9CbYk-58" value="&lt;font style=&quot;font-size: 18px;&quot;&gt;PK&lt;/font&gt;" style="shape=partialRectangle;connectable=0;fillColor=none;top=0;left=0;bottom=0;right=0;fontStyle=1;overflow=hidden;whiteSpace=wrap;html=1;rounded=1;" vertex="1" parent="_xAk3Wb8vuUeQdh9CbYk-57">
          <mxGeometry width="70" height="80" as="geometry">
            <mxRectangle width="70" height="80" as="alternateBounds" />
          </mxGeometry>
        </mxCell>
        <mxCell id="_xAk3Wb8vuUeQdh9CbYk-59" value="&lt;span style=&quot;font-size: 18px;&quot;&gt;Code Client&lt;/span&gt;" style="shape=partialRectangle;connectable=0;fillColor=none;top=0;left=0;bottom=0;right=0;align=left;spacingLeft=6;fontStyle=5;overflow=hidden;whiteSpace=wrap;html=1;rounded=1;" vertex="1" parent="_xAk3Wb8vuUeQdh9CbYk-57">
          <mxGeometry x="70" width="520" height="80" as="geometry">
            <mxRectangle width="520" height="80" as="alternateBounds" />
          </mxGeometry>
        </mxCell>
        <mxCell id="_xAk3Wb8vuUeQdh9CbYk-60" value="" style="shape=tableRow;horizontal=0;startSize=0;swimlaneHead=0;swimlaneBody=0;fillColor=none;collapsible=0;dropTarget=0;points=[[0,0.5],[1,0.5]];portConstraint=eastwest;top=0;left=0;right=0;bottom=0;rounded=1;" vertex="1" parent="_xAk3Wb8vuUeQdh9CbYk-56">
          <mxGeometry y="150" width="590" height="80" as="geometry" />
        </mxCell>
        <mxCell id="_xAk3Wb8vuUeQdh9CbYk-61" value="" style="shape=partialRectangle;connectable=0;fillColor=none;top=0;left=0;bottom=0;right=0;editable=1;overflow=hidden;whiteSpace=wrap;html=1;rounded=1;" vertex="1" parent="_xAk3Wb8vuUeQdh9CbYk-60">
          <mxGeometry width="70" height="80" as="geometry">
            <mxRectangle width="70" height="80" as="alternateBounds" />
          </mxGeometry>
        </mxCell>
        <mxCell id="_xAk3Wb8vuUeQdh9CbYk-62" value="&lt;font style=&quot;font-size: 18px;&quot;&gt;&lt;b&gt;Nom&amp;nbsp; Client&lt;/b&gt;&lt;/font&gt;" style="shape=partialRectangle;connectable=0;fillColor=none;top=0;left=0;bottom=0;right=0;align=left;spacingLeft=6;overflow=hidden;whiteSpace=wrap;html=1;rounded=1;" vertex="1" parent="_xAk3Wb8vuUeQdh9CbYk-60">
          <mxGeometry x="70" width="520" height="80" as="geometry">
            <mxRectangle width="520" height="80" as="alternateBounds" />
          </mxGeometry>
        </mxCell>
        <mxCell id="_xAk3Wb8vuUeQdh9CbYk-63" value="" style="shape=tableRow;horizontal=0;startSize=0;swimlaneHead=0;swimlaneBody=0;fillColor=none;collapsible=0;dropTarget=0;points=[[0,0.5],[1,0.5]];portConstraint=eastwest;top=0;left=0;right=0;bottom=0;rounded=1;" vertex="1" parent="_xAk3Wb8vuUeQdh9CbYk-56">
          <mxGeometry y="230" width="590" height="90" as="geometry" />
        </mxCell>
        <mxCell id="_xAk3Wb8vuUeQdh9CbYk-64" value="" style="shape=partialRectangle;connectable=0;fillColor=none;top=0;left=0;bottom=0;right=0;editable=1;overflow=hidden;whiteSpace=wrap;html=1;rounded=1;" vertex="1" parent="_xAk3Wb8vuUeQdh9CbYk-63">
          <mxGeometry width="70" height="90" as="geometry">
            <mxRectangle width="70" height="90" as="alternateBounds" />
          </mxGeometry>
        </mxCell>
        <mxCell id="_xAk3Wb8vuUeQdh9CbYk-65" value="&lt;font style=&quot;font-size: 18px;&quot;&gt;&lt;b&gt;Adresse client&lt;/b&gt;&lt;/font&gt;" style="shape=partialRectangle;connectable=0;fillColor=none;top=0;left=0;bottom=0;right=0;align=left;spacingLeft=6;overflow=hidden;whiteSpace=wrap;html=1;rounded=1;" vertex="1" parent="_xAk3Wb8vuUeQdh9CbYk-63">
          <mxGeometry x="70" width="520" height="90" as="geometry">
            <mxRectangle width="520" height="90" as="alternateBounds" />
          </mxGeometry>
        </mxCell>
        <mxCell id="_xAk3Wb8vuUeQdh9CbYk-66" value="" style="shape=tableRow;horizontal=0;startSize=0;swimlaneHead=0;swimlaneBody=0;fillColor=none;collapsible=0;dropTarget=0;points=[[0,0.5],[1,0.5]];portConstraint=eastwest;top=0;left=0;right=0;bottom=0;rounded=1;" vertex="1" parent="_xAk3Wb8vuUeQdh9CbYk-56">
          <mxGeometry y="320" width="590" height="70" as="geometry" />
        </mxCell>
        <mxCell id="_xAk3Wb8vuUeQdh9CbYk-67" value="" style="shape=partialRectangle;connectable=0;fillColor=none;top=0;left=0;bottom=0;right=0;editable=1;overflow=hidden;whiteSpace=wrap;html=1;rounded=1;" vertex="1" parent="_xAk3Wb8vuUeQdh9CbYk-66">
          <mxGeometry width="70" height="70" as="geometry">
            <mxRectangle width="70" height="70" as="alternateBounds" />
          </mxGeometry>
        </mxCell>
        <mxCell id="_xAk3Wb8vuUeQdh9CbYk-68" value="&lt;b&gt;&lt;font style=&quot;font-size: 18px;&quot;&gt;Ville client&lt;/font&gt;&lt;/b&gt;" style="shape=partialRectangle;connectable=0;fillColor=none;top=0;left=0;bottom=0;right=0;align=left;spacingLeft=6;overflow=hidden;whiteSpace=wrap;html=1;rounded=1;" vertex="1" parent="_xAk3Wb8vuUeQdh9CbYk-66">
          <mxGeometry x="70" width="520" height="70" as="geometry">
            <mxRectangle width="520" height="70" as="alternateBounds" />
          </mxGeometry>
        </mxCell>
        <mxCell id="_xAk3Wb8vuUeQdh9CbYk-70" value="&lt;font style=&quot;font-size: 24px;&quot;&gt;Commande&lt;/font&gt;" style="shape=table;startSize=70;container=1;collapsible=1;childLayout=tableLayout;fixedRows=1;rowLines=0;fontStyle=1;align=center;resizeLast=1;html=1;rounded=1;" vertex="1" parent="1">
          <mxGeometry x="1346" y="490" width="590" height="340" as="geometry" />
        </mxCell>
        <mxCell id="_xAk3Wb8vuUeQdh9CbYk-71" value="" style="shape=tableRow;horizontal=0;startSize=0;swimlaneHead=0;swimlaneBody=0;fillColor=none;collapsible=0;dropTarget=0;points=[[0,0.5],[1,0.5]];portConstraint=eastwest;top=0;left=0;right=0;bottom=1;rounded=1;" vertex="1" parent="_xAk3Wb8vuUeQdh9CbYk-70">
          <mxGeometry y="70" width="590" height="80" as="geometry" />
        </mxCell>
        <mxCell id="_xAk3Wb8vuUeQdh9CbYk-72" value="&lt;font style=&quot;font-size: 18px;&quot;&gt;PK&lt;/font&gt;" style="shape=partialRectangle;connectable=0;fillColor=none;top=0;left=0;bottom=0;right=0;fontStyle=1;overflow=hidden;whiteSpace=wrap;html=1;rounded=1;" vertex="1" parent="_xAk3Wb8vuUeQdh9CbYk-71">
          <mxGeometry width="70" height="80" as="geometry">
            <mxRectangle width="70" height="80" as="alternateBounds" />
          </mxGeometry>
        </mxCell>
        <mxCell id="_xAk3Wb8vuUeQdh9CbYk-73" value="&lt;span style=&quot;font-size: 18px;&quot;&gt;NumÃ©ro de commande&lt;/span&gt;" style="shape=partialRectangle;connectable=0;fillColor=none;top=0;left=0;bottom=0;right=0;align=left;spacingLeft=6;fontStyle=5;overflow=hidden;whiteSpace=wrap;html=1;rounded=1;" vertex="1" parent="_xAk3Wb8vuUeQdh9CbYk-71">
          <mxGeometry x="70" width="520" height="80" as="geometry">
            <mxRectangle width="520" height="80" as="alternateBounds" />
          </mxGeometry>
        </mxCell>
        <mxCell id="_xAk3Wb8vuUeQdh9CbYk-74" value="" style="shape=tableRow;horizontal=0;startSize=0;swimlaneHead=0;swimlaneBody=0;fillColor=none;collapsible=0;dropTarget=0;points=[[0,0.5],[1,0.5]];portConstraint=eastwest;top=0;left=0;right=0;bottom=0;rounded=1;" vertex="1" parent="_xAk3Wb8vuUeQdh9CbYk-70">
          <mxGeometry y="150" width="590" height="80" as="geometry" />
        </mxCell>
        <mxCell id="_xAk3Wb8vuUeQdh9CbYk-75" value="" style="shape=partialRectangle;connectable=0;fillColor=none;top=0;left=0;bottom=0;right=0;editable=1;overflow=hidden;whiteSpace=wrap;html=1;rounded=1;" vertex="1" parent="_xAk3Wb8vuUeQdh9CbYk-74">
          <mxGeometry width="70" height="80" as="geometry">
            <mxRectangle width="70" height="80" as="alternateBounds" />
          </mxGeometry>
        </mxCell>
        <mxCell id="_xAk3Wb8vuUeQdh9CbYk-76" value="&lt;font style=&quot;font-size: 18px;&quot;&gt;&lt;b&gt;Date de commande&lt;/b&gt;&lt;/font&gt;" style="shape=partialRectangle;connectable=0;fillColor=none;top=0;left=0;bottom=0;right=0;align=left;spacingLeft=6;overflow=hidden;whiteSpace=wrap;html=1;rounded=1;" vertex="1" parent="_xAk3Wb8vuUeQdh9CbYk-74">
          <mxGeometry x="70" width="520" height="80" as="geometry">
            <mxRectangle width="520" height="80" as="alternateBounds" />
          </mxGeometry>
        </mxCell>
        <mxCell id="_xAk3Wb8vuUeQdh9CbYk-77" value="" style="shape=tableRow;horizontal=0;startSize=0;swimlaneHead=0;swimlaneBody=0;fillColor=none;collapsible=0;dropTarget=0;points=[[0,0.5],[1,0.5]];portConstraint=eastwest;top=0;left=0;right=0;bottom=0;rounded=1;" vertex="1" parent="_xAk3Wb8vuUeQdh9CbYk-70">
          <mxGeometry y="230" width="590" height="110" as="geometry" />
        </mxCell>
        <mxCell id="_xAk3Wb8vuUeQdh9CbYk-78" value="" style="shape=partialRectangle;connectable=0;fillColor=none;top=0;left=0;bottom=0;right=0;editable=1;overflow=hidden;whiteSpace=wrap;html=1;rounded=1;" vertex="1" parent="_xAk3Wb8vuUeQdh9CbYk-77">
          <mxGeometry width="70" height="110" as="geometry">
            <mxRectangle width="70" height="110" as="alternateBounds" />
          </mxGeometry>
        </mxCell>
        <mxCell id="_xAk3Wb8vuUeQdh9CbYk-79" value="&lt;font style=&quot;font-size: 18px;&quot;&gt;&lt;b&gt;Lieu de livraison&lt;/b&gt;&lt;/font&gt;" style="shape=partialRectangle;connectable=0;fillColor=none;top=0;left=0;bottom=0;right=0;align=left;spacingLeft=6;overflow=hidden;whiteSpace=wrap;html=1;rounded=1;" vertex="1" parent="_xAk3Wb8vuUeQdh9CbYk-77">
          <mxGeometry x="70" width="520" height="110" as="geometry">
            <mxRectangle width="520" height="110" as="alternateBounds" />
          </mxGeometry>
        </mxCell>
        <mxCell id="_xAk3Wb8vuUeQdh9CbYk-97" style="edgeStyle=none;rounded=1;orthogonalLoop=1;jettySize=auto;html=1;entryX=0;entryY=0.5;entryDx=0;entryDy=0;" edge="1" parent="1" source="_xAk3Wb8vuUeQdh9CbYk-95" target="_xAk3Wb8vuUeQdh9CbYk-74">
          <mxGeometry relative="1" as="geometry" />
        </mxCell>
        <mxCell id="_xAk3Wb8vuUeQdh9CbYk-95" value="&lt;font style=&quot;font-size: 18px;&quot;&gt;Passe&lt;/font&gt;" style="whiteSpace=wrap;html=1;startSize=70;fontStyle=1;rounded=1;" vertex="1" parent="1">
          <mxGeometry x="945" y="655" width="120" height="60" as="geometry" />
        </mxCell>
        <mxCell id="_xAk3Wb8vuUeQdh9CbYk-101" value="&lt;font style=&quot;font-size: 18px;&quot;&gt;&lt;b&gt;1.n&lt;/b&gt;&lt;/font&gt;" style="text;strokeColor=none;align=center;fillColor=none;html=1;verticalAlign=middle;whiteSpace=wrap;rounded=0;" vertex="1" parent="1">
          <mxGeometry x="631" y="655" width="60" height="30" as="geometry" />
        </mxCell>
        <mxCell id="_xAk3Wb8vuUeQdh9CbYk-102" value="&lt;font style=&quot;font-size: 18px;&quot;&gt;&lt;b&gt;1.1&lt;/b&gt;&lt;/font&gt;" style="text;strokeColor=none;align=center;fillColor=none;html=1;verticalAlign=middle;whiteSpace=wrap;rounded=0;" vertex="1" parent="1">
          <mxGeometry x="1280" y="685" width="60" height="30" as="geometry" />
        </mxCell>
        <mxCell id="_xAk3Wb8vuUeQdh9CbYk-103" value="&lt;font style=&quot;font-size: 48px;&quot;&gt;Exemple 1&lt;/font&gt;" style="text;strokeColor=none;align=center;fillColor=none;html=1;verticalAlign=middle;whiteSpace=wrap;rounded=0;" vertex="1" parent="1">
          <mxGeometry x="825" y="1180" width="360" height="30" as="geometry" />
        </mxCell>
        <mxCell id="_xAk3Wb8vuUeQdh9CbYk-104" value="" style="shape=table;startSize=0;container=1;collapsible=0;childLayout=tableLayout;rounded=1;" vertex="1" parent="1">
          <mxGeometry x="2910" y="101" width="1083" height="160" as="geometry" />
        </mxCell>
        <mxCell id="_xAk3Wb8vuUeQdh9CbYk-105" value="" style="shape=tableRow;horizontal=0;startSize=0;swimlaneHead=0;swimlaneBody=0;strokeColor=inherit;top=0;left=0;bottom=0;right=0;collapsible=0;dropTarget=0;fillColor=none;points=[[0,0.5],[1,0.5]];portConstraint=eastwest;rounded=1;" vertex="1" parent="_xAk3Wb8vuUeQdh9CbYk-104">
          <mxGeometry width="1083" height="40" as="geometry" />
        </mxCell>
        <mxCell id="_xAk3Wb8vuUeQdh9CbYk-106" value="" style="shape=partialRectangle;html=1;whiteSpace=wrap;connectable=0;strokeColor=inherit;overflow=hidden;fillColor=none;top=0;left=0;bottom=0;right=0;pointerEvents=1;rounded=1;" vertex="1" parent="_xAk3Wb8vuUeQdh9CbYk-105">
          <mxGeometry width="239" height="40" as="geometry">
            <mxRectangle width="239" height="40" as="alternateBounds" />
          </mxGeometry>
        </mxCell>
        <mxCell id="_xAk3Wb8vuUeQdh9CbYk-107" value="" style="shape=partialRectangle;html=1;whiteSpace=wrap;connectable=0;strokeColor=inherit;overflow=hidden;fillColor=none;top=0;left=0;bottom=0;right=0;pointerEvents=1;rounded=1;" vertex="1" parent="_xAk3Wb8vuUeQdh9CbYk-105">
          <mxGeometry x="239" width="260" height="40" as="geometry">
            <mxRectangle width="260" height="40" as="alternateBounds" />
          </mxGeometry>
        </mxCell>
        <mxCell id="_xAk3Wb8vuUeQdh9CbYk-108" value="" style="shape=partialRectangle;html=1;whiteSpace=wrap;connectable=0;strokeColor=inherit;overflow=hidden;fillColor=none;top=0;left=0;bottom=0;right=0;pointerEvents=1;rounded=1;" vertex="1" parent="_xAk3Wb8vuUeQdh9CbYk-105">
          <mxGeometry x="499" width="170" height="40" as="geometry">
            <mxRectangle width="170" height="40" as="alternateBounds" />
          </mxGeometry>
        </mxCell>
        <mxCell id="_xAk3Wb8vuUeQdh9CbYk-109" value="" style="shape=partialRectangle;html=1;whiteSpace=wrap;connectable=0;strokeColor=inherit;overflow=hidden;fillColor=none;top=0;left=0;bottom=0;right=0;pointerEvents=1;rounded=1;" vertex="1" parent="_xAk3Wb8vuUeQdh9CbYk-105">
          <mxGeometry x="669" width="204" height="40" as="geometry">
            <mxRectangle width="204" height="40" as="alternateBounds" />
          </mxGeometry>
        </mxCell>
        <mxCell id="_xAk3Wb8vuUeQdh9CbYk-110" value="" style="shape=partialRectangle;html=1;whiteSpace=wrap;connectable=0;strokeColor=inherit;overflow=hidden;fillColor=none;top=0;left=0;bottom=0;right=0;pointerEvents=1;rounded=1;" vertex="1" parent="_xAk3Wb8vuUeQdh9CbYk-105">
          <mxGeometry x="873" width="210" height="40" as="geometry">
            <mxRectangle width="210" height="40" as="alternateBounds" />
          </mxGeometry>
        </mxCell>
        <mxCell id="_xAk3Wb8vuUeQdh9CbYk-113" value="" style="shape=tableRow;horizontal=0;startSize=0;swimlaneHead=0;swimlaneBody=0;strokeColor=inherit;top=0;left=0;bottom=0;right=0;collapsible=0;dropTarget=0;fillColor=none;points=[[0,0.5],[1,0.5]];portConstraint=eastwest;rounded=1;" vertex="1" parent="_xAk3Wb8vuUeQdh9CbYk-104">
          <mxGeometry y="40" width="1083" height="40" as="geometry" />
        </mxCell>
        <mxCell id="_xAk3Wb8vuUeQdh9CbYk-114" value="" style="shape=partialRectangle;html=1;whiteSpace=wrap;connectable=0;strokeColor=inherit;overflow=hidden;fillColor=none;top=0;left=0;bottom=0;right=0;pointerEvents=1;rounded=1;" vertex="1" parent="_xAk3Wb8vuUeQdh9CbYk-113">
          <mxGeometry width="239" height="40" as="geometry">
            <mxRectangle width="239" height="40" as="alternateBounds" />
          </mxGeometry>
        </mxCell>
        <mxCell id="_xAk3Wb8vuUeQdh9CbYk-115" value="" style="shape=partialRectangle;html=1;whiteSpace=wrap;connectable=0;strokeColor=inherit;overflow=hidden;fillColor=none;top=0;left=0;bottom=0;right=0;pointerEvents=1;rounded=1;" vertex="1" parent="_xAk3Wb8vuUeQdh9CbYk-113">
          <mxGeometry x="239" width="260" height="40" as="geometry">
            <mxRectangle width="260" height="40" as="alternateBounds" />
          </mxGeometry>
        </mxCell>
        <mxCell id="_xAk3Wb8vuUeQdh9CbYk-116" value="" style="shape=partialRectangle;html=1;whiteSpace=wrap;connectable=0;strokeColor=inherit;overflow=hidden;fillColor=none;top=0;left=0;bottom=0;right=0;pointerEvents=1;rounded=1;" vertex="1" parent="_xAk3Wb8vuUeQdh9CbYk-113">
          <mxGeometry x="499" width="170" height="40" as="geometry">
            <mxRectangle width="170" height="40" as="alternateBounds" />
          </mxGeometry>
        </mxCell>
        <mxCell id="_xAk3Wb8vuUeQdh9CbYk-117" value="" style="shape=partialRectangle;html=1;whiteSpace=wrap;connectable=0;strokeColor=inherit;overflow=hidden;fillColor=none;top=0;left=0;bottom=0;right=0;pointerEvents=1;rounded=1;" vertex="1" parent="_xAk3Wb8vuUeQdh9CbYk-113">
          <mxGeometry x="669" width="204" height="40" as="geometry">
            <mxRectangle width="204" height="40" as="alternateBounds" />
          </mxGeometry>
        </mxCell>
        <mxCell id="_xAk3Wb8vuUeQdh9CbYk-118" value="" style="shape=partialRectangle;html=1;whiteSpace=wrap;connectable=0;strokeColor=inherit;overflow=hidden;fillColor=none;top=0;left=0;bottom=0;right=0;pointerEvents=1;rounded=1;" vertex="1" parent="_xAk3Wb8vuUeQdh9CbYk-113">
          <mxGeometry x="873" width="210" height="40" as="geometry">
            <mxRectangle width="210" height="40" as="alternateBounds" />
          </mxGeometry>
        </mxCell>
        <mxCell id="_xAk3Wb8vuUeQdh9CbYk-121" value="" style="shape=tableRow;horizontal=0;startSize=0;swimlaneHead=0;swimlaneBody=0;strokeColor=inherit;top=0;left=0;bottom=0;right=0;collapsible=0;dropTarget=0;fillColor=none;points=[[0,0.5],[1,0.5]];portConstraint=eastwest;rounded=1;" vertex="1" parent="_xAk3Wb8vuUeQdh9CbYk-104">
          <mxGeometry y="80" width="1083" height="40" as="geometry" />
        </mxCell>
        <mxCell id="_xAk3Wb8vuUeQdh9CbYk-122" value="" style="shape=partialRectangle;html=1;whiteSpace=wrap;connectable=0;strokeColor=inherit;overflow=hidden;fillColor=none;top=0;left=0;bottom=0;right=0;pointerEvents=1;rounded=1;" vertex="1" parent="_xAk3Wb8vuUeQdh9CbYk-121">
          <mxGeometry width="239" height="40" as="geometry">
            <mxRectangle width="239" height="40" as="alternateBounds" />
          </mxGeometry>
        </mxCell>
        <mxCell id="_xAk3Wb8vuUeQdh9CbYk-123" value="" style="shape=partialRectangle;html=1;whiteSpace=wrap;connectable=0;strokeColor=inherit;overflow=hidden;fillColor=none;top=0;left=0;bottom=0;right=0;pointerEvents=1;rounded=1;" vertex="1" parent="_xAk3Wb8vuUeQdh9CbYk-121">
          <mxGeometry x="239" width="260" height="40" as="geometry">
            <mxRectangle width="260" height="40" as="alternateBounds" />
          </mxGeometry>
        </mxCell>
        <mxCell id="_xAk3Wb8vuUeQdh9CbYk-124" value="" style="shape=partialRectangle;html=1;whiteSpace=wrap;connectable=0;strokeColor=inherit;overflow=hidden;fillColor=none;top=0;left=0;bottom=0;right=0;pointerEvents=1;rounded=1;" vertex="1" parent="_xAk3Wb8vuUeQdh9CbYk-121">
          <mxGeometry x="499" width="170" height="40" as="geometry">
            <mxRectangle width="170" height="40" as="alternateBounds" />
          </mxGeometry>
        </mxCell>
        <mxCell id="_xAk3Wb8vuUeQdh9CbYk-125" value="" style="shape=partialRectangle;html=1;whiteSpace=wrap;connectable=0;strokeColor=inherit;overflow=hidden;fillColor=none;top=0;left=0;bottom=0;right=0;pointerEvents=1;rounded=1;" vertex="1" parent="_xAk3Wb8vuUeQdh9CbYk-121">
          <mxGeometry x="669" width="204" height="40" as="geometry">
            <mxRectangle width="204" height="40" as="alternateBounds" />
          </mxGeometry>
        </mxCell>
        <mxCell id="_xAk3Wb8vuUeQdh9CbYk-126" value="" style="shape=partialRectangle;html=1;whiteSpace=wrap;connectable=0;strokeColor=inherit;overflow=hidden;fillColor=none;top=0;left=0;bottom=0;right=0;pointerEvents=1;rounded=1;" vertex="1" parent="_xAk3Wb8vuUeQdh9CbYk-121">
          <mxGeometry x="873" width="210" height="40" as="geometry">
            <mxRectangle width="210" height="40" as="alternateBounds" />
          </mxGeometry>
        </mxCell>
        <mxCell id="_xAk3Wb8vuUeQdh9CbYk-129" value="" style="shape=tableRow;horizontal=0;startSize=0;swimlaneHead=0;swimlaneBody=0;strokeColor=inherit;top=0;left=0;bottom=0;right=0;collapsible=0;dropTarget=0;fillColor=none;points=[[0,0.5],[1,0.5]];portConstraint=eastwest;rounded=1;" vertex="1" parent="_xAk3Wb8vuUeQdh9CbYk-104">
          <mxGeometry y="120" width="1083" height="40" as="geometry" />
        </mxCell>
        <mxCell id="_xAk3Wb8vuUeQdh9CbYk-130" value="" style="shape=partialRectangle;html=1;whiteSpace=wrap;connectable=0;strokeColor=inherit;overflow=hidden;fillColor=none;top=0;left=0;bottom=0;right=0;pointerEvents=1;rounded=1;" vertex="1" parent="_xAk3Wb8vuUeQdh9CbYk-129">
          <mxGeometry width="239" height="40" as="geometry">
            <mxRectangle width="239" height="40" as="alternateBounds" />
          </mxGeometry>
        </mxCell>
        <mxCell id="_xAk3Wb8vuUeQdh9CbYk-131" value="" style="shape=partialRectangle;html=1;whiteSpace=wrap;connectable=0;strokeColor=inherit;overflow=hidden;fillColor=none;top=0;left=0;bottom=0;right=0;pointerEvents=1;rounded=1;" vertex="1" parent="_xAk3Wb8vuUeQdh9CbYk-129">
          <mxGeometry x="239" width="260" height="40" as="geometry">
            <mxRectangle width="260" height="40" as="alternateBounds" />
          </mxGeometry>
        </mxCell>
        <mxCell id="_xAk3Wb8vuUeQdh9CbYk-132" value="" style="shape=partialRectangle;html=1;whiteSpace=wrap;connectable=0;strokeColor=inherit;overflow=hidden;fillColor=none;top=0;left=0;bottom=0;right=0;pointerEvents=1;rounded=1;" vertex="1" parent="_xAk3Wb8vuUeQdh9CbYk-129">
          <mxGeometry x="499" width="170" height="40" as="geometry">
            <mxRectangle width="170" height="40" as="alternateBounds" />
          </mxGeometry>
        </mxCell>
        <mxCell id="_xAk3Wb8vuUeQdh9CbYk-133" value="" style="shape=partialRectangle;html=1;whiteSpace=wrap;connectable=0;strokeColor=inherit;overflow=hidden;fillColor=none;top=0;left=0;bottom=0;right=0;pointerEvents=1;rounded=1;" vertex="1" parent="_xAk3Wb8vuUeQdh9CbYk-129">
          <mxGeometry x="669" width="204" height="40" as="geometry">
            <mxRectangle width="204" height="40" as="alternateBounds" />
          </mxGeometry>
        </mxCell>
        <mxCell id="_xAk3Wb8vuUeQdh9CbYk-134" value="" style="shape=partialRectangle;html=1;whiteSpace=wrap;connectable=0;strokeColor=inherit;overflow=hidden;fillColor=none;top=0;left=0;bottom=0;right=0;pointerEvents=1;rounded=1;" vertex="1" parent="_xAk3Wb8vuUeQdh9CbYk-129">
          <mxGeometry x="873" width="210" height="40" as="geometry">
            <mxRectangle width="210" height="40" as="alternateBounds" />
          </mxGeometry>
        </mxCell>
        <mxCell id="_xAk3Wb8vuUeQdh9CbYk-137" value="&lt;span style=&quot;font-size: 24px;&quot;&gt;&lt;b&gt;N de professeur&lt;/b&gt;&lt;/span&gt;" style="text;strokeColor=none;align=center;fillColor=none;html=1;verticalAlign=middle;whiteSpace=wrap;rounded=1;" vertex="1" parent="1">
          <mxGeometry x="2919" y="111" width="210" height="30" as="geometry" />
        </mxCell>
        <mxCell id="_xAk3Wb8vuUeQdh9CbYk-144" style="edgeStyle=none;rounded=1;orthogonalLoop=1;jettySize=auto;html=1;exitX=0.25;exitY=1;exitDx=0;exitDy=0;" edge="1" parent="1" source="_xAk3Wb8vuUeQdh9CbYk-139" target="_xAk3Wb8vuUeQdh9CbYk-105">
          <mxGeometry relative="1" as="geometry" />
        </mxCell>
        <mxCell id="_xAk3Wb8vuUeQdh9CbYk-139" value="&lt;font style=&quot;vertical-align: inherit;&quot;&gt;&lt;font style=&quot;vertical-align: inherit;&quot;&gt;&lt;font style=&quot;vertical-align: inherit;&quot;&gt;&lt;font style=&quot;vertical-align: inherit; font-size: 24px;&quot;&gt;&lt;b style=&quot;&quot;&gt;&lt;font style=&quot;vertical-align: inherit;&quot;&gt;&lt;font style=&quot;vertical-align: inherit;&quot;&gt;Nom professeur&lt;/font&gt;&lt;/font&gt;&lt;/b&gt;&lt;/font&gt;&lt;/font&gt;&lt;/font&gt;&lt;/font&gt;" style="text;strokeColor=none;align=center;fillColor=none;html=1;verticalAlign=middle;whiteSpace=wrap;rounded=1;" vertex="1" parent="1">
          <mxGeometry x="3169" y="111" width="220" height="30" as="geometry" />
        </mxCell>
        <mxCell id="_xAk3Wb8vuUeQdh9CbYk-140" value="&lt;font style=&quot;vertical-align: inherit;&quot;&gt;&lt;font style=&quot;vertical-align: inherit;&quot;&gt;&lt;font style=&quot;vertical-align: inherit;&quot;&gt;&lt;font style=&quot;vertical-align: inherit; font-size: 24px;&quot;&gt;&lt;b style=&quot;&quot;&gt;&lt;font style=&quot;vertical-align: inherit;&quot;&gt;&lt;font style=&quot;vertical-align: inherit;&quot;&gt;N de module&lt;/font&gt;&lt;/font&gt;&lt;/b&gt;&lt;/font&gt;&lt;/font&gt;&lt;/font&gt;&lt;/font&gt;" style="text;strokeColor=none;align=center;fillColor=none;html=1;verticalAlign=middle;whiteSpace=wrap;rounded=1;" vertex="1" parent="1">
          <mxGeometry x="3409" y="111" width="160" height="30" as="geometry" />
        </mxCell>
        <mxCell id="_xAk3Wb8vuUeQdh9CbYk-141" value="&lt;font style=&quot;vertical-align: inherit;&quot;&gt;&lt;font style=&quot;vertical-align: inherit;&quot;&gt;&lt;font style=&quot;vertical-align: inherit;&quot;&gt;&lt;font style=&quot;vertical-align: inherit; font-size: 24px;&quot;&gt;&lt;b style=&quot;&quot;&gt;&lt;font style=&quot;vertical-align: inherit;&quot;&gt;&lt;font style=&quot;vertical-align: inherit;&quot;&gt;Titre de module&lt;/font&gt;&lt;/font&gt;&lt;/b&gt;&lt;/font&gt;&lt;/font&gt;&lt;/font&gt;&lt;/font&gt;" style="text;strokeColor=none;align=center;fillColor=none;html=1;verticalAlign=middle;whiteSpace=wrap;rounded=1;" vertex="1" parent="1">
          <mxGeometry x="3599" y="111" width="190" height="30" as="geometry" />
        </mxCell>
        <mxCell id="_xAk3Wb8vuUeQdh9CbYk-142" value="&lt;font style=&quot;vertical-align: inherit;&quot;&gt;&lt;font style=&quot;vertical-align: inherit;&quot;&gt;&lt;font style=&quot;vertical-align: inherit;&quot;&gt;&lt;font style=&quot;vertical-align: inherit; font-size: 24px;&quot;&gt;&lt;b style=&quot;&quot;&gt;&lt;font style=&quot;vertical-align: inherit;&quot;&gt;&lt;font style=&quot;vertical-align: inherit;&quot;&gt;N de salle&lt;/font&gt;&lt;/font&gt;&lt;/b&gt;&lt;/font&gt;&lt;/font&gt;&lt;/font&gt;&lt;/font&gt;" style="text;strokeColor=none;align=center;fillColor=none;html=1;verticalAlign=middle;whiteSpace=wrap;rounded=1;" vertex="1" parent="1">
          <mxGeometry x="3809" y="111" width="170" height="30" as="geometry" />
        </mxCell>
        <mxCell id="_xAk3Wb8vuUeQdh9CbYk-145" style="edgeStyle=none;rounded=1;orthogonalLoop=1;jettySize=auto;html=1;exitX=0.5;exitY=0;exitDx=0;exitDy=0;entryX=0.5;entryY=1;entryDx=0;entryDy=0;" edge="1" parent="1" source="_xAk3Wb8vuUeQdh9CbYk-142" target="_xAk3Wb8vuUeQdh9CbYk-142">
          <mxGeometry relative="1" as="geometry" />
        </mxCell>
        <mxCell id="_xAk3Wb8vuUeQdh9CbYk-146" value="&lt;font style=&quot;vertical-align: inherit;&quot;&gt;&lt;font style=&quot;vertical-align: inherit;&quot;&gt;&lt;font style=&quot;vertical-align: inherit;&quot;&gt;&lt;font style=&quot;vertical-align: inherit;&quot;&gt;Table non modelisÃ©e&lt;/font&gt;&lt;/font&gt;&lt;/font&gt;&lt;/font&gt;" style="text;strokeColor=none;fillColor=none;html=1;fontSize=24;fontStyle=1;verticalAlign=middle;align=center;rounded=1;shadow=1;" vertex="1" parent="1">
          <mxGeometry x="3099" y="40" width="780" height="40" as="geometry" />
        </mxCell>
        <mxCell id="_xAk3Wb8vuUeQdh9CbYk-147" value="&lt;font style=&quot;vertical-align: inherit;&quot;&gt;&lt;font style=&quot;vertical-align: inherit;&quot;&gt;&lt;font style=&quot;vertical-align: inherit;&quot;&gt;&lt;font style=&quot;vertical-align: inherit;&quot;&gt;Table modelisÃ©e(base de donnÃ©e relationnel, modÃ¨le conceptuel de donnÃ©e ou EntitÃ© association)&lt;/font&gt;&lt;/font&gt;&lt;/font&gt;&lt;/font&gt;" style="text;strokeColor=none;fillColor=none;html=1;fontSize=24;fontStyle=1;verticalAlign=middle;align=center;rounded=1;shadow=1;" vertex="1" parent="1">
          <mxGeometry x="3090" y="420" width="780" height="40" as="geometry" />
        </mxCell>
        <mxCell id="_xAk3Wb8vuUeQdh9CbYk-161" value="&lt;font style=&quot;font-size: 24px;&quot;&gt;Professeur&lt;/font&gt;" style="shape=table;startSize=70;container=1;collapsible=1;childLayout=tableLayout;fixedRows=1;rowLines=0;fontStyle=1;align=center;resizeLast=1;html=1;rounded=1;" vertex="1" parent="1">
          <mxGeometry x="2460" y="475" width="590" height="230" as="geometry" />
        </mxCell>
        <mxCell id="_xAk3Wb8vuUeQdh9CbYk-162" value="" style="shape=tableRow;horizontal=0;startSize=0;swimlaneHead=0;swimlaneBody=0;fillColor=none;collapsible=0;dropTarget=0;points=[[0,0.5],[1,0.5]];portConstraint=eastwest;top=0;left=0;right=0;bottom=1;rounded=1;" vertex="1" parent="_xAk3Wb8vuUeQdh9CbYk-161">
          <mxGeometry y="70" width="590" height="80" as="geometry" />
        </mxCell>
        <mxCell id="_xAk3Wb8vuUeQdh9CbYk-163" value="&lt;font style=&quot;font-size: 18px;&quot;&gt;PK&lt;/font&gt;" style="shape=partialRectangle;connectable=0;fillColor=none;top=0;left=0;bottom=0;right=0;fontStyle=1;overflow=hidden;whiteSpace=wrap;html=1;rounded=1;" vertex="1" parent="_xAk3Wb8vuUeQdh9CbYk-162">
          <mxGeometry width="70" height="80" as="geometry">
            <mxRectangle width="70" height="80" as="alternateBounds" />
          </mxGeometry>
        </mxCell>
        <mxCell id="_xAk3Wb8vuUeQdh9CbYk-164" value="&lt;span style=&quot;font-size: 18px;&quot;&gt;N de professeur&lt;/span&gt;" style="shape=partialRectangle;connectable=0;fillColor=none;top=0;left=0;bottom=0;right=0;align=left;spacingLeft=6;fontStyle=5;overflow=hidden;whiteSpace=wrap;html=1;rounded=1;" vertex="1" parent="_xAk3Wb8vuUeQdh9CbYk-162">
          <mxGeometry x="70" width="520" height="80" as="geometry">
            <mxRectangle width="520" height="80" as="alternateBounds" />
          </mxGeometry>
        </mxCell>
        <mxCell id="_xAk3Wb8vuUeQdh9CbYk-165" value="" style="shape=tableRow;horizontal=0;startSize=0;swimlaneHead=0;swimlaneBody=0;fillColor=none;collapsible=0;dropTarget=0;points=[[0,0.5],[1,0.5]];portConstraint=eastwest;top=0;left=0;right=0;bottom=0;rounded=1;" vertex="1" parent="_xAk3Wb8vuUeQdh9CbYk-161">
          <mxGeometry y="150" width="590" height="80" as="geometry" />
        </mxCell>
        <mxCell id="_xAk3Wb8vuUeQdh9CbYk-166" value="" style="shape=partialRectangle;connectable=0;fillColor=none;top=0;left=0;bottom=0;right=0;editable=1;overflow=hidden;whiteSpace=wrap;html=1;rounded=1;" vertex="1" parent="_xAk3Wb8vuUeQdh9CbYk-165">
          <mxGeometry width="70" height="80" as="geometry">
            <mxRectangle width="70" height="80" as="alternateBounds" />
          </mxGeometry>
        </mxCell>
        <mxCell id="_xAk3Wb8vuUeQdh9CbYk-167" value="&lt;font style=&quot;font-size: 18px;&quot;&gt;&lt;b&gt;Nom&amp;nbsp; Professeur&lt;/b&gt;&lt;/font&gt;" style="shape=partialRectangle;connectable=0;fillColor=none;top=0;left=0;bottom=0;right=0;align=left;spacingLeft=6;overflow=hidden;whiteSpace=wrap;html=1;rounded=1;" vertex="1" parent="_xAk3Wb8vuUeQdh9CbYk-165">
          <mxGeometry x="70" width="520" height="80" as="geometry">
            <mxRectangle width="520" height="80" as="alternateBounds" />
          </mxGeometry>
        </mxCell>
        <mxCell id="_xAk3Wb8vuUeQdh9CbYk-174" value="&lt;font style=&quot;font-size: 24px;&quot;&gt;Module&lt;/font&gt;" style="shape=table;startSize=70;container=1;collapsible=1;childLayout=tableLayout;fixedRows=1;rowLines=0;fontStyle=1;align=center;resizeLast=1;html=1;rounded=1;" vertex="1" parent="1">
          <mxGeometry x="3900" y="470" width="590" height="230" as="geometry" />
        </mxCell>
        <mxCell id="_xAk3Wb8vuUeQdh9CbYk-175" value="" style="shape=tableRow;horizontal=0;startSize=0;swimlaneHead=0;swimlaneBody=0;fillColor=none;collapsible=0;dropTarget=0;points=[[0,0.5],[1,0.5]];portConstraint=eastwest;top=0;left=0;right=0;bottom=1;rounded=1;" vertex="1" parent="_xAk3Wb8vuUeQdh9CbYk-174">
          <mxGeometry y="70" width="590" height="80" as="geometry" />
        </mxCell>
        <mxCell id="_xAk3Wb8vuUeQdh9CbYk-176" value="&lt;font style=&quot;font-size: 18px;&quot;&gt;PK&lt;/font&gt;" style="shape=partialRectangle;connectable=0;fillColor=none;top=0;left=0;bottom=0;right=0;fontStyle=1;overflow=hidden;whiteSpace=wrap;html=1;rounded=1;" vertex="1" parent="_xAk3Wb8vuUeQdh9CbYk-175">
          <mxGeometry width="70" height="80" as="geometry">
            <mxRectangle width="70" height="80" as="alternateBounds" />
          </mxGeometry>
        </mxCell>
        <mxCell id="_xAk3Wb8vuUeQdh9CbYk-177" value="&lt;span style=&quot;font-size: 18px;&quot;&gt;N de module&lt;/span&gt;" style="shape=partialRectangle;connectable=0;fillColor=none;top=0;left=0;bottom=0;right=0;align=left;spacingLeft=6;fontStyle=5;overflow=hidden;whiteSpace=wrap;html=1;rounded=1;" vertex="1" parent="_xAk3Wb8vuUeQdh9CbYk-175">
          <mxGeometry x="70" width="520" height="80" as="geometry">
            <mxRectangle width="520" height="80" as="alternateBounds" />
          </mxGeometry>
        </mxCell>
        <mxCell id="_xAk3Wb8vuUeQdh9CbYk-178" value="" style="shape=tableRow;horizontal=0;startSize=0;swimlaneHead=0;swimlaneBody=0;fillColor=none;collapsible=0;dropTarget=0;points=[[0,0.5],[1,0.5]];portConstraint=eastwest;top=0;left=0;right=0;bottom=0;rounded=1;" vertex="1" parent="_xAk3Wb8vuUeQdh9CbYk-174">
          <mxGeometry y="150" width="590" height="80" as="geometry" />
        </mxCell>
        <mxCell id="_xAk3Wb8vuUeQdh9CbYk-179" value="" style="shape=partialRectangle;connectable=0;fillColor=none;top=0;left=0;bottom=0;right=0;editable=1;overflow=hidden;whiteSpace=wrap;html=1;rounded=1;" vertex="1" parent="_xAk3Wb8vuUeQdh9CbYk-178">
          <mxGeometry width="70" height="80" as="geometry">
            <mxRectangle width="70" height="80" as="alternateBounds" />
          </mxGeometry>
        </mxCell>
        <mxCell id="_xAk3Wb8vuUeQdh9CbYk-180" value="&lt;font style=&quot;font-size: 18px;&quot;&gt;&lt;b&gt;Titre du module&lt;/b&gt;&lt;/font&gt;" style="shape=partialRectangle;connectable=0;fillColor=none;top=0;left=0;bottom=0;right=0;align=left;spacingLeft=6;overflow=hidden;whiteSpace=wrap;html=1;rounded=1;" vertex="1" parent="_xAk3Wb8vuUeQdh9CbYk-178">
          <mxGeometry x="70" width="520" height="80" as="geometry">
            <mxRectangle width="520" height="80" as="alternateBounds" />
          </mxGeometry>
        </mxCell>
        <mxCell id="_xAk3Wb8vuUeQdh9CbYk-181" value="&lt;font style=&quot;font-size: 24px;&quot;&gt;Salle&lt;/font&gt;" style="shape=table;startSize=70;container=1;collapsible=1;childLayout=tableLayout;fixedRows=1;rowLines=0;fontStyle=1;align=center;resizeLast=1;html=1;rounded=1;" vertex="1" parent="1">
          <mxGeometry x="3185" y="1030" width="590" height="150" as="geometry" />
        </mxCell>
        <mxCell id="_xAk3Wb8vuUeQdh9CbYk-182" value="" style="shape=tableRow;horizontal=0;startSize=0;swimlaneHead=0;swimlaneBody=0;fillColor=none;collapsible=0;dropTarget=0;points=[[0,0.5],[1,0.5]];portConstraint=eastwest;top=0;left=0;right=0;bottom=1;rounded=1;" vertex="1" parent="_xAk3Wb8vuUeQdh9CbYk-181">
          <mxGeometry y="70" width="590" height="80" as="geometry" />
        </mxCell>
        <mxCell id="_xAk3Wb8vuUeQdh9CbYk-183" value="&lt;font style=&quot;font-size: 18px;&quot;&gt;PK&lt;/font&gt;" style="shape=partialRectangle;connectable=0;fillColor=none;top=0;left=0;bottom=0;right=0;fontStyle=1;overflow=hidden;whiteSpace=wrap;html=1;rounded=1;" vertex="1" parent="_xAk3Wb8vuUeQdh9CbYk-182">
          <mxGeometry width="70" height="80" as="geometry">
            <mxRectangle width="70" height="80" as="alternateBounds" />
          </mxGeometry>
        </mxCell>
        <mxCell id="_xAk3Wb8vuUeQdh9CbYk-184" value="&lt;span style=&quot;font-size: 18px;&quot;&gt;N de Salle&lt;/span&gt;" style="shape=partialRectangle;connectable=0;fillColor=none;top=0;left=0;bottom=0;right=0;align=left;spacingLeft=6;fontStyle=5;overflow=hidden;whiteSpace=wrap;html=1;rounded=1;" vertex="1" parent="_xAk3Wb8vuUeQdh9CbYk-182">
          <mxGeometry x="70" width="520" height="80" as="geometry">
            <mxRectangle width="520" height="80" as="alternateBounds" />
          </mxGeometry>
        </mxCell>
        <mxCell id="_xAk3Wb8vuUeQdh9CbYk-189" style="edgeStyle=none;rounded=1;orthogonalLoop=1;jettySize=auto;html=1;entryX=0.5;entryY=0;entryDx=0;entryDy=0;" edge="1" parent="1" source="_xAk3Wb8vuUeQdh9CbYk-188" target="_xAk3Wb8vuUeQdh9CbYk-181">
          <mxGeometry relative="1" as="geometry" />
        </mxCell>
        <mxCell id="_xAk3Wb8vuUeQdh9CbYk-191" style="edgeStyle=none;rounded=1;orthogonalLoop=1;jettySize=auto;html=1;" edge="1" parent="1" source="_xAk3Wb8vuUeQdh9CbYk-188">
          <mxGeometry relative="1" as="geometry">
            <mxPoint x="3890" y="620" as="targetPoint" />
          </mxGeometry>
        </mxCell>
        <mxCell id="_xAk3Wb8vuUeQdh9CbYk-188" value="&lt;font style=&quot;font-size: 18px;&quot;&gt;Faire cours&lt;/font&gt;" style="whiteSpace=wrap;html=1;startSize=70;fontStyle=1;rounded=1;" vertex="1" parent="1">
          <mxGeometry x="3420" y="770" width="120" height="60" as="geometry" />
        </mxCell>
        <mxCell id="_xAk3Wb8vuUeQdh9CbYk-190" style="edgeStyle=none;rounded=1;orthogonalLoop=1;jettySize=auto;html=1;entryX=0;entryY=0.5;entryDx=0;entryDy=0;exitX=1;exitY=0.5;exitDx=0;exitDy=0;" edge="1" parent="1" source="_xAk3Wb8vuUeQdh9CbYk-162" target="_xAk3Wb8vuUeQdh9CbYk-188">
          <mxGeometry relative="1" as="geometry" />
        </mxCell>
        <mxCell id="_xAk3Wb8vuUeQdh9CbYk-192" value="&lt;font style=&quot;font-size: 18px;&quot;&gt;&lt;b&gt;1.n&lt;/b&gt;&lt;/font&gt;" style="text;strokeColor=none;align=center;fillColor=none;html=1;verticalAlign=middle;whiteSpace=wrap;rounded=0;" vertex="1" parent="1">
          <mxGeometry x="3060" y="565" width="60" height="30" as="geometry" />
        </mxCell>
        <mxCell id="_xAk3Wb8vuUeQdh9CbYk-193" value="&lt;font style=&quot;font-size: 18px;&quot;&gt;&lt;b&gt;0.n&lt;/b&gt;&lt;/font&gt;" style="text;strokeColor=none;align=center;fillColor=none;html=1;verticalAlign=middle;whiteSpace=wrap;rounded=0;" vertex="1" parent="1">
          <mxGeometry x="3834" y="640" width="60" height="30" as="geometry" />
        </mxCell>
        <mxCell id="_xAk3Wb8vuUeQdh9CbYk-194" value="&lt;font style=&quot;font-size: 18px;&quot;&gt;&lt;b&gt;0.n&lt;/b&gt;&lt;/font&gt;" style="text;strokeColor=none;align=center;fillColor=none;html=1;verticalAlign=middle;whiteSpace=wrap;rounded=0;" vertex="1" parent="1">
          <mxGeometry x="3480" y="1000" width="60" height="30" as="geometry" />
        </mxCell>
      </root>
    </mxGraphModel>
  </diagram>
</mxfile>
